<?xml version="1.0" standalone="no"?>
<!DOCTYPE svg PUBLIC "-//W3C//DTD SVG 20010904//EN"
 "http://www.w3.org/TR/2001/REC-SVG-20010904/DTD/svg10.dtd">
<svg version="1.0" xmlns="http://www.w3.org/2000/svg"
 width="250.000000pt" height="250.000000pt" viewBox="0 0 250.000000 250.000000"
 preserveAspectRatio="xMidYMid meet">
<metadata>
Created by potrace 1.14, written by Peter Selinger 2001-2017
</metadata>
<g transform="translate(0.000000,250.000000) scale(0.100000,-0.100000)"
fill="#000000" stroke="none">
<path d="M865 2388 c-16 -6 -46 -26 -67 -45 -111 -106 -37 -297 119 -306 37
-3 39 -5 100 -111 l62 -109 -21 -40 c-23 -47 -20 -122 7 -163 15 -23 14 -27
-12 -72 -56 -95 -63 -108 -79 -138 -15 -28 -23 -32 -70 -37 -61 -6 -102 -33
-132 -85 -71 -128 14 -272 159 -272 55 0 120 38 150 87 30 48 32 133 5 178
l-18 30 38 65 c20 36 48 84 61 108 17 29 31 42 46 42 43 0 98 22 132 51 117
103 44 302 -113 312 -38 2 -40 4 -101 109 -60 104 -61 108 -47 135 36 71 29
144 -21 204 -47 55 -130 79 -198 57z"/>
<path d="M1468 2391 c-82 -26 -138 -112 -128 -192 14 -113 116 -182 230 -155
106 25 161 172 101 270 -40 64 -133 99 -203 77z"/>
<path d="M592 1880 c-114 -26 -175 -156 -122 -260 65 -128 257 -126 319 3 36
75 25 145 -31 204 -44 46 -107 66 -166 53z"/>
<path d="M1782 1879 c-116 -21 -178 -139 -131 -249 l21 -48 -63 -106 c-59
-101 -64 -106 -96 -106 -106 0 -191 -104 -171 -209 23 -122 139 -183 251 -132
47 22 67 41 90 89 19 39 16 115 -6 158 -16 31 -16 32 44 135 34 57 62 105 63
107 2 1 21 4 44 6 98 9 165 84 164 182 -1 114 -96 193 -210 173z"/>
<path d="M700 440 l0 -271 63 3 62 3 3 98 3 97 67 1 c84 1 95 3 134 26 46 27
70 65 76 122 7 81 -22 137 -90 172 -31 16 -60 19 -178 19 l-140 0 0 -270z
m262 143 c10 -9 18 -30 18 -49 0 -44 -30 -64 -97 -64 l-53 0 0 65 0 65 57 0
c38 0 62 -5 75 -17z"/>
<path d="M1370 440 l0 -270 193 2 192 3 0 50 0 50 -127 3 -128 3 0 214 0 215
-65 0 -65 0 0 -270z"/>
<path d="M1171 284 c-27 -34 -27 -64 -1 -92 31 -33 81 -33 118 1 28 26 28 56
1 91 -16 20 -29 26 -59 26 -30 0 -43 -6 -59 -26z"/>
</g>
</svg>
